<?xml version="1.0" encoding="UTF-8" standalone="no"?>
<!DOCTYPE svg PUBLIC "-//W3C//DTD SVG 1.1//EN" "http://www.w3.org/Graphics/SVG/1.1/DTD/svg11.dtd">
<svg width="100%" height="100%" viewBox="0 0 100 100" version="1.1" xmlns="http://www.w3.org/2000/svg" xmlns:xlink="http://www.w3.org/1999/xlink" xml:space="preserve" xmlns:serif="http://www.serif.com/" style="fill-rule:evenodd;clip-rule:evenodd;stroke-linejoin:round;stroke-miterlimit:2;">
    <g>
        <g transform="matrix(0.96222,0,0,0.96222,1.88902,1.88902)">
            <circle cx="50" cy="50" r="50" style="fill:rgb(30,30,30);"/>
        </g>
        <g transform="matrix(1,0,0,1.0796,0.287642,-5.56982)">
            <path d="M43.859,35.182C43.859,33.964 42.792,32.975 41.477,32.975L36.711,32.975C35.396,32.975 34.329,33.964 34.329,35.182L34.329,67.763C34.329,68.981 35.396,69.97 36.711,69.97L41.477,69.97C42.792,69.97 43.859,68.981 43.859,67.763L43.859,35.182Z" style="fill:rgb(235,235,235);"/>
        </g>
        <g transform="matrix(1,0,0,1.0796,21.5241,-5.56982)">
            <path d="M43.859,35.182C43.859,33.964 42.792,32.975 41.477,32.975L36.711,32.975C35.396,32.975 34.329,33.964 34.329,35.182L34.329,67.763C34.329,68.981 35.396,69.97 36.711,69.97L41.477,69.97C42.792,69.97 43.859,68.981 43.859,67.763L43.859,35.182Z" style="fill:rgb(235,235,235);"/>
        </g>
    </g>
</svg>
