<svg height='100px' width='100px'  fill="#ffffff" xmlns="http://www.w3.org/2000/svg" xmlns:xlink="http://www.w3.org/1999/xlink" version="1.1" x="0px" y="0px" viewBox="0 0 100 100" enable-background="new 0 0 100 100" xml:space="preserve"><path fill="#ffffff" d="M54.08,49.999l17.537-17.535c1.127-1.127,1.127-2.953,0-4.08c-1.127-1.127-2.953-1.127-4.08,0L50,45.919  L32.463,28.384c-1.127-1.127-2.953-1.127-4.08,0c-1.127,1.127-1.127,2.953,0,4.08L45.92,49.999L28.383,67.536  c-1.127,1.127-1.127,2.953,0,4.08c1.127,1.127,2.953,1.127,4.08,0L50,54.079l17.537,17.537c0.564,0.564,1.302,0.845,2.04,0.845  s1.476-0.282,2.04-0.845c1.127-1.127,1.127-2.953,0-4.08L54.08,49.999z"></path></svg>